<?xml version="1.0" encoding="UTF-8"?>
<svg id="Layer_2" data-name="Layer 2" xmlns="http://www.w3.org/2000/svg" viewBox="0 0 103.84 103.18">
  <defs>
    <style>
      .cls-1 {
        fill: #059669;
      }

      .cls-1, .cls-2 {
        stroke-width: 0px;
      }

      .cls-2 {
        fill: #10b981;
      }
    </style>
  </defs>
  <g id="Layer_1-2" data-name="Layer 1">
    <g>
      <path class="cls-2" d="m103.53,57.33c.21-1.89.32-3.8.32-5.74s-.11-3.86-.32-5.74l-6.97-.77c-.35-2.4-.88-4.73-1.59-6.99l5.95-3.72c-1.28-3.65-2.96-7.12-4.99-10.35l-6.62,2.34c-1.34-1.99-2.84-3.86-4.48-5.6l3.75-5.93c-2.71-2.71-5.72-5.11-8.98-7.17l-4.95,4.97c-2.06-1.2-4.21-2.25-6.46-3.12l.8-6.97c-3.57-1.24-7.32-2.11-11.2-2.55l-2.3,6.63c-1.18-.09-2.38-.14-3.58-.14s-2.4.05-3.58.14l-2.3-6.63c-3.88.44-7.63,1.3-11.2,2.55l.8,6.97c-2.25.87-4.4,1.91-6.46,3.12l-4.95-4.97c-3.25,2.06-6.27,4.46-8.98,7.17l3.75,5.93c-1.63,1.74-3.13,3.61-4.48,5.6l-6.62-2.34c-2.03,3.23-3.71,6.69-4.99,10.35l5.95,3.72c-.71,2.26-1.24,4.6-1.59,6.99l-6.97.77c-.21,1.89-.32,3.8-.32,5.74s.11,3.86.32,5.74l6.97.77c.35,2.4.88,4.73,1.59,6.99l-5.95,3.72c1.28,3.65,2.96,7.12,4.99,10.35l6.62-2.34c1.34,1.99,2.84,3.86,4.48,5.6l-3.75,5.93c2.71,2.71,5.72,5.11,8.98,7.17l4.95-4.97c2.06,1.2,4.21,2.25,6.46,3.12l-.8,6.97c3.57,1.24,7.32,2.11,11.2,2.55l2.3-6.63c1.18.09,2.38.14,3.58.14s2.4-.05,3.58-.14l2.3,6.63c3.88-.44,7.63-1.3,11.2-2.55l-.8-6.97c2.25-.87,4.4-1.91,6.46-3.12l4.95,4.97c3.25-2.06,6.27-4.46,8.98-7.17l-3.75-5.93c1.63-1.74,3.13-3.61,4.48-5.6l6.62,2.34c2.03-3.23,3.71-6.69,4.99-10.35l-5.95-3.72c.71-2.26,1.24-4.6,1.59-6.99l6.97-.77Zm-51.6,34.28c-22.1,0-40.02-17.92-40.02-40.02S29.82,11.57,51.92,11.57s40.02,17.92,40.02,40.02-17.92,40.02-40.02,40.02Z"/>
      <path class="cls-1" d="m69.99,47.89h-2.69c-1.64,2.24-4.73,4.56-10.46,4.7,1.43,1.32,2.6,2.74,3.26,4.27,6.21-1.08,8.81-5.47,9.9-8.98Z"/>
      <path class="cls-1" d="m53.77,33.49c.4,2.08,1.2,4.46,2.74,5.87.47-.2.97-.34,1.51-.37.59-.86,1.4-1.53,2.34-1.96-2.29-.36-3.57-1.94-4.29-3.54h-2.29Z"/>
      <path class="cls-1" d="m76.09,60.33h-7.89s-.02,0-.03,0h-8.8c.03-.27.05-.54.04-.81-.01-.55-.11-1.09-.28-1.61-.08-.26-.19-.52-.31-.78-.01-.03-.03-.06-.05-.09-.23-.48-.52-.95-.86-1.42-.4-.54-.87-1.07-1.39-1.59-.19-.19-.37-.37-.57-.55-.25-.23-.51-.46-.78-.68-.8-.68-1.68-1.34-2.58-1.98-.6-.43-1.22-.85-1.84-1.27-.62-.42-1.25-.83-1.86-1.23-.22-.14-.43-.29-.65-.43h-6.12c.36.42.73.84,1.09,1.24.57.63,1.13,1.25,1.67,1.85.27.3.53.59.79.87.34.38.62.74.84,1.1.22.35.39.7.5,1.03.22.65.26,1.26.16,1.82,0,.05-.02.09-.03.14-.09.4-.24.78-.46,1.14-.16.27-.35.52-.56.76-.42.49-.93.93-1.47,1.31-.17.12-.35.24-.53.36-.49.31-.99.59-1.45.82h-6.58s-.02,0-.03,0h-7.89c-1.09,0-1.98.88-1.98,1.98s.88,1.98,1.98,1.98h2.32l3.04,7.72c1.48,3.76,4.61,6.24,8.05,6.44-.09.47-.36,1.05-1.17,1.39-1.49.62-3.08.18-3.08,2.49h7.62l2.94-3.86h9.7l2.94,3.86h7.62c0-2.3-1.59-1.87-3.08-2.49-.92-.38-1.16-1.09-1.2-1.57,2.92-.66,5.47-2.97,6.77-6.26l3.04-7.72h2.39c1.09,0,1.98-.88,1.98-1.98s-.88-1.98-1.98-1.98Zm-34.53,9.07c0-.78.63-1.41,1.41-1.41h19.2c.78,0,1.41.63,1.41,1.41s-.63,1.41-1.41,1.41h-19.2c-.78,0-1.41-.63-1.41-1.41Z"/>
      <path class="cls-1" d="m29.39,31.8c1.72-1.66,4.04-2.66,6.52-2.66,2.69,0,5.2,1.17,6.95,3.1h25.2c.18-.01.36-.04.55-.04s.37.03.55.04h.19c.24,0,.47-.02.7-.07,1.58-.32,2.77-1.72,2.77-3.4s-1.19-3.08-2.77-3.4c-.23-.05-.46-.07-.7-.07-.48,0-.93.1-1.35.27-.41.18-.79.43-1.1.74h0c-.1-.28-.25-.54-.4-.79-.19-.31-.41-.6-.68-.85-.79-.76-1.86-1.23-3.05-1.23-.77,0-1.48.2-2.11.54-.21.11-.41.25-.59.39h0c-.34-.62-.8-1.16-1.34-1.6-.36-.29-.76-.54-1.2-.73-.22-.1-.44-.18-.67-.24-.46-.13-.95-.2-1.45-.2,0,0,0,0,0,0-.14-.38-.31-.74-.5-1.09s-.41-.68-.65-.99c-.12-.16-.25-.31-.38-.45-.39-.44-.84-.84-1.32-1.18-1.29-.91-2.86-1.45-4.56-1.45-1.06,0-2.08.21-3,.59-.19.08-.37.16-.54.25-.25.13-.49.27-.72.42-.27.17-.53.36-.77.56-.15.13-.3.26-.44.39-.43.41-.8.87-1.13,1.36-.11.17-.21.34-.31.51-.19.35-.36.71-.5,1.09-.25.02-.49.05-.72.09s-.47.11-.69.19c-1.34.47-2.44,1.45-3.05,2.72h0c-.17-.02-.35-.05-.53-.05-.57,0-1.1.13-1.59.35-.23.11-.46.23-.66.37-.16.11-.31.24-.45.38-.28.27-.51.59-.7.94-.09.17-.17.35-.24.54-.17-.08-.35-.14-.54-.18-.19-.04-.38-.07-.58-.07-.74,0-1.41.30-1.89.78-.48.48-.78,1.15-.78,1.89,0,.93.48,1.75,1.2,2.23Z"/>
      <path class="cls-1" d="m41.08,46.65h7.92c.82,0,1.58-.25,2.21-.67,1.05-.71,1.74-1.91,1.74-3.28s-.69-2.57-1.74-3.28c-.63-.43-1.39-.67-2.21-.67-.19,0-.37.03-.55.05h0c-.44-.92-1.13-1.69-1.98-2.24-.85-.55-1.86-.86-2.95-.86,0,0,0,0,0,0h0c-.04-.11-.09-.22-.14-.33-.27-.65-.62-1.25-1.04-1.8-.02-.02-.04-.04-.06-.07-.36-.46-.77-.88-1.21-1.25-1.4-1.16-3.20-1.85-5.16-1.85-1.41,0-2.73.36-3.89,1-.42.23-.81.49-1.18.78-.03.02-.05.04-.08.06h0c-.32.26-.61.54-.89.85-.06.07-.12.14-.18.21-.6.71-1.08,1.53-1.41,2.42-.25.02-.5.05-.75.1-.49.1-.95.26-1.38.48-1.07.54-1.95,1.43-2.47,2.52-.18-.03-.36-.05-.55-.05-.82,0-1.58.25-2.21.67-.42.28-.78.65-1.07,1.07-.28.42-.49.90-.59,1.41-.05.26-.08.52-.08.80,0,.82.25,1.58.67,2.21.28.42.65.78,1.07,1.07.63.43,1.39.67,2.21.67h17.93Z"/>
      <path class="cls-1" d="m78.8,40.28c-.18-.37-.41-.72-.68-1.02-.27-.31-.58-.57-.93-.80-.30-.19-.62-.34-.96-.46-.09-.03-.18-.06-.27-.09-.37-.10-.76-.16-1.16-.16,0,0,0,0,0,0h0c-.16-.42-.37-.81-.60-1.19-.29-.46-.62-.90-1.01-1.28-.47-.46-1.01-.84-1.61-1.14-.59-.30-1.24-.51-1.91-.62-.17-.03-.36-.03-.54-.04-.17-.01-.33-.04-.50-.04s-.34.03-.50.04c-1.09.08-2.09.42-2.97.97-.39.24-.77.51-1.10.83-.03.02-.05.05-.07.08-.67.67-1.21,1.48-1.55,2.39-.12,0-.24.03-.36.05-.28.04-.56.10-.82.19-.19.06-.37.14-.54.23-.87.44-1.58,1.16-2,2.04-.15-.02-.29-.04-.44-.04-.11,0-.22.02-.33.03-.32.03-.63.10-.91.22-1.15.49-1.96,1.63-1.96,2.95s.81,2.47,1.96,2.95c.38.16.81.25,1.25.25h20.98c.44,0,.86-.09,1.25-.25,1.15-.49,1.96-1.63,1.96-2.95s-.81-2.47-1.96-2.95c-.38-.16-.81-.25-1.25-.25-.15,0-.30.02-.44.04Z"/>
    </g>
  </g>
</svg>