<svg width="221" height="57" viewBox="0 0 221 57" fill="none" xmlns="http://www.w3.org/2000/svg">
<g clip-path="url(#clip0_2062_379)">
<path d="M31.7115 3.63208C31.8486 3.80023 32.2459 3.76089 32.4474 3.79965C32.9047 3.88777 33.354 4.02661 33.8061 4.13343C34.0678 4.19533 34.2492 4.21172 34.4972 4.28847C34.6158 4.3253 34.7456 4.32723 34.855 4.39452L34.8528 4.56787L35.1316 4.45931C35.2665 4.48843 35.4205 4.59564 35.5357 4.63517C35.7689 4.715 36.0414 4.73641 36.2266 4.92827C36.2485 4.95102 36.2185 5.02218 36.2589 5.03336L36.6014 5.03008C36.6691 5.01697 36.8646 4.77863 36.9282 4.70227C37.3863 4.1506 37.7858 3.4676 38.2374 2.8922C38.4648 2.60238 38.721 2.32973 38.9348 2.02911C39.0684 1.99498 39.1732 2.12571 39.2728 2.16023C40.3228 2.5239 41.1082 2.89818 42.089 3.41284C42.6227 3.69282 43.2105 3.98322 43.7205 4.31257C44.0149 4.50251 44.3517 4.74103 44.6221 4.96915C44.7117 5.04474 45.0383 5.29059 45.0823 5.35577C45.19 5.51485 45.0331 5.57193 44.9862 5.68878C44.7075 6.38084 44.3432 7.06576 43.9799 7.72542C43.9005 7.86966 43.5093 8.40263 43.5456 8.51332C44.0097 8.89782 44.5101 9.24163 44.9649 9.63731C45.339 9.96261 45.6789 10.3058 46.0603 10.6209C46.115 10.6662 46.4251 10.9296 46.156 10.8913C46.2154 11.0772 46.3615 10.9923 46.4453 11.0411C46.5649 11.1105 46.9407 11.5338 47.1179 11.6809C47.2333 11.7767 47.3081 11.9526 47.473 11.9258C47.5013 11.9212 47.81 11.7669 47.8592 11.7389C48.4421 11.408 49.0665 10.9771 49.6511 10.6362C49.8352 10.5288 50.3035 10.1805 50.4621 10.1369C50.6301 10.0908 50.7804 10.2848 50.8864 10.4082C51.6563 11.3043 52.357 12.4678 52.9852 13.4698C53.4266 14.1736 53.9549 14.8487 54.1531 15.6443C54.1602 15.6728 54.3895 15.8242 54.4158 16.0097C54.452 16.2642 54.3036 16.1907 54.2032 16.2615C54.1725 16.2833 54.0571 16.4543 54.0114 16.4817C53.6144 16.7199 53.1888 16.8599 52.8587 17.2071L51.5 18.0124C51.4483 18.18 51.5667 18.1703 51.5896 18.2243C51.7063 18.4972 51.7457 18.8865 51.8541 19.1921C51.9212 19.3813 52.1259 19.7411 52.1121 19.9347C52.1082 19.9887 52.0486 20.0278 52.0484 20.0486C52.0483 20.0747 52.3033 20.3531 52.3362 20.4821C52.4293 20.8477 52.6761 21.5531 52.714 21.8774C52.7238 21.9617 52.6807 22.034 52.6982 22.1208C52.7034 22.147 52.8605 22.4495 52.8833 22.4781C53.0296 22.6597 53.2186 22.5859 53.4016 22.6136C54.1655 22.7289 54.958 22.8416 55.7494 22.9197C55.9451 22.9389 56.303 22.8701 56.457 22.9812C56.6962 23.1534 56.6077 23.6285 56.6177 23.8986C56.795 24.0005 56.7363 24.341 56.7711 24.5552C57.0205 26.0905 56.9203 27.7403 56.9582 29.3024C56.9616 29.4476 57.0168 29.5543 56.9943 29.7224C56.968 29.9204 56.6604 29.9806 56.4887 30.0234C55.6869 30.223 54.6982 30.2546 53.8695 30.4044C53.6832 30.4382 53.5039 30.4957 53.3237 30.5512L53.0717 32.4959L52.9227 32.5591C53.0165 32.7581 52.9904 33.0097 52.9585 33.2305C52.863 33.8894 52.6184 34.5202 52.466 35.1652C52.4464 35.2481 52.4222 35.3372 52.4281 35.423C52.4575 35.5315 52.7966 35.6281 52.8916 35.6856C53.6331 36.1337 54.3605 36.6162 55.0683 37.1066C55.101 37.1293 55.1738 37.1254 55.2284 37.1671C55.393 37.293 55.5395 37.4095 55.4499 37.6181C54.7007 39.3619 53.8676 41.1827 52.813 42.7616C52.724 42.8947 52.6734 43.0669 52.5717 43.1957L52.4235 43.1611C52.4746 43.4498 52.3318 43.4218 52.1732 43.5466C52.1169 43.5908 52.0486 43.6978 51.9992 43.7207C51.8797 43.7763 51.5342 43.5757 51.396 43.5167C51.2136 43.4388 51.119 43.3894 50.9513 43.3073C50.6213 43.1455 50.296 42.9741 49.9711 42.8034C49.9802 42.6289 49.8566 42.7234 49.7212 42.6903C49.5223 42.6413 49.0567 42.305 48.875 42.3567C48.8394 42.3667 48.4686 42.8522 48.408 42.9323C47.6091 43.9888 46.7258 44.8904 45.8865 45.8785C45.7942 45.987 45.636 46.0563 45.6725 46.207C45.7154 46.3841 46.0059 46.7537 46.1114 46.9269C46.4272 47.4452 46.7246 48.0171 47.0709 48.5077C47.122 48.6988 47.4319 49.0273 47.3671 49.2119C47.3404 49.2882 47.2014 49.4244 47.1358 49.483C46.9624 49.6382 46.6695 49.7826 46.5201 49.9064C46.4244 49.9857 46.4805 50.089 46.2711 50.042C46.2517 50.2782 45.957 50.4423 45.7665 50.5773C44.517 51.4643 43.2938 52.2111 41.9375 52.9431C41.8722 52.9784 41.8539 53.0661 41.7434 53.0974C41.6853 53.1137 41.5711 53.0806 41.4914 53.1384C41.3545 53.1236 41.363 52.988 41.2949 52.9128C41.094 52.6913 40.9829 52.5881 40.7905 52.338C40.3445 51.7585 40.0705 51.2834 39.5411 50.7672C39.362 50.5925 39.3147 50.2344 38.955 50.3314C38.9173 50.3416 38.9181 50.4082 38.8879 50.4248C38.3343 50.7296 37.2695 51.1276 36.6701 51.2867C36.5793 51.3108 36.4757 51.2765 36.4136 51.2929C36.3684 51.3048 36.4109 51.4103 36.3267 51.4437C36.2183 51.4865 35.9949 51.5115 35.8602 51.5542C35.0293 51.8176 34.1548 51.9282 33.3126 52.161C33.2269 52.1847 33.135 52.2163 33.1235 52.3181C33.1018 52.5927 33.1189 52.9352 33.082 53.2019C33.011 53.7154 32.8915 54.3149 32.7857 54.8313C32.7711 54.9028 32.7421 55.2146 32.7207 55.2651C32.6723 55.3797 32.4628 55.3789 32.6064 55.5752C32.5498 55.6147 32.5039 55.6961 32.451 55.7308C32.1238 55.9446 31.4962 55.8945 31.0744 55.931C29.8737 56.0351 28.8226 56.0989 27.6055 56.0796C26.8812 56.0682 26.0151 56.0576 25.3292 55.8912C25.1408 55.8455 24.8094 55.8827 24.6526 55.8372C24.4672 55.7832 24.5689 55.393 24.548 55.2516C24.5299 55.1305 24.4253 54.9884 24.4121 54.8446C24.403 54.7476 24.4499 54.6679 24.4269 54.5619C24.3963 54.4213 24.1433 53.9797 24.3196 53.8941L24.3192 53.8232C24.1056 53.5605 24.1975 53.1895 24.1656 52.8945C24.1524 52.7719 24.0749 52.6388 24.0574 52.4982C24.0441 52.3916 24.116 52.2919 24.0436 52.1876C23.8367 52.2476 23.6704 52.0937 23.528 52.0688C23.4367 52.0528 22.9282 52.0503 22.8955 52.0279L22.9724 51.913C22.8273 51.8843 22.6875 51.9656 22.5481 51.9363C22.4414 51.914 22.3894 51.8216 22.3301 51.8048C22.24 51.7792 22.1341 51.8112 22.0393 51.788C21.8624 51.7447 21.6281 51.6126 21.4833 51.5746C21.3359 51.5358 21.1519 51.6423 21.165 51.4113C20.8503 51.498 20.3914 51.3249 20.08 51.2082C19.977 51.1697 19.6279 50.9548 19.6004 50.9481C19.5148 50.9269 19.3991 50.9606 19.2801 50.9307C18.9466 50.8472 18.2097 50.2848 17.9187 50.3314C17.8564 50.3415 17.8174 50.3802 17.7824 50.4286L15.8969 52.9716C15.6218 53.3131 15.609 53.1766 15.3319 53.0393C13.5524 52.1571 11.9838 51.0673 10.3974 49.8526C10.2792 49.7622 10.1267 49.6988 10.002 49.5921C9.97353 49.5678 9.81032 49.4217 9.80437 49.4095C9.79571 49.3914 9.82147 49.0416 9.83109 49.0096C9.84416 48.9664 9.8976 48.9406 9.91586 48.902C10.1629 48.3802 10.507 47.7913 10.8075 47.2898C11.0205 46.9342 11.2888 46.6095 11.4688 46.2321C11.4589 46.123 10.6162 45.3031 10.4768 45.1465C9.71728 44.2936 9.06022 43.3916 8.34067 42.508C8.27435 42.4267 8.18419 42.3108 8.075 42.3096C7.93121 42.3083 7.50367 42.6139 7.3395 42.6943C6.68628 43.0138 5.89734 43.445 5.23566 43.7076C5.10898 43.7579 4.92501 43.876 4.80659 43.777C4.51516 43.3127 4.15798 42.8769 3.93229 42.3777C3.59838 41.8391 3.12028 41.1345 2.87441 40.5485C2.81405 40.4049 2.7931 40.1889 2.74119 40.0653C2.71582 40.0049 2.62624 39.8796 2.5651 39.7406C2.39209 39.3468 2.16602 38.967 1.9907 38.5817C1.9165 38.4185 1.60565 37.7475 1.59412 37.6289C1.55451 37.2246 1.94149 37.1451 2.18813 36.9872C2.32154 36.9018 2.50647 36.7544 2.64873 36.6607C3.25543 36.2614 3.89058 35.8717 4.47671 35.4263C4.30427 35.1434 4.29331 34.7978 4.24007 34.476C4.13876 33.8649 3.94556 33.217 3.82925 32.5745C3.73237 32.04 3.67758 31.5018 3.58607 30.9679C3.57819 30.922 3.52014 30.7357 3.49822 30.7091C3.40691 30.598 2.72466 30.6094 2.54184 30.5886C1.94687 30.5209 1.35709 30.4268 0.766343 30.3258C0.327081 30.2506 0.10697 30.4351 0.0585261 29.8404C-0.053548 28.4623 0.00835229 26.9359 0.13446 25.5612C0.150223 25.39 0.110815 25.1879 0.137151 25.0242C0.163488 24.8605 0.256338 24.6204 0.286711 24.4414C0.3167 24.2648 0.346305 23.5714 0.467991 23.496L3.95325 23.1148C4.09108 22.9816 4.03206 22.7951 4.06494 22.6402C4.1922 22.0402 4.39732 21.4405 4.54495 20.847C4.5982 20.6327 4.60359 20.3928 4.69221 20.185C4.77698 19.9862 4.80832 19.9038 4.88348 19.6827C5.02785 19.2575 5.22836 18.8498 5.28833 18.3992C5.16261 18.2924 5.04996 18.1666 4.91539 18.0691C4.34791 17.6564 3.74448 17.3032 3.15758 16.9403C2.89421 16.7775 2.7287 16.5216 2.47802 16.3811L2.5182 16.0968L2.36499 16.2123C2.32731 16.0779 2.44765 16.0938 2.4786 16.0278C2.52589 15.927 2.54338 15.7505 2.61932 15.6373C2.64604 15.5974 2.746 15.5525 2.76888 15.4802L2.82424 15.4827L2.90306 15.5569L2.84193 15.3259L3.49476 14.2806C3.55762 14.2027 3.58492 14.0322 3.63183 13.9653C3.67604 13.9023 3.77312 13.8919 3.82541 13.7638C3.86847 13.6578 3.70103 13.7951 3.74967 13.6882C4.09762 12.9217 4.91462 12.1724 5.27853 11.4042L6.09534 10.3697C6.15225 10.3421 6.29815 10.4246 6.35871 10.4541C6.82758 10.6819 7.48887 11.1238 7.93736 11.4156C7.99349 11.452 8.07865 11.577 8.11825 11.5829C8.16401 11.5899 8.19957 11.5266 8.23821 11.5153C8.29857 11.4977 8.63749 11.7617 8.72668 11.819C8.85395 11.9007 9.01389 11.8643 8.97813 12.0878L9.11001 12.0477C9.14499 12.1466 9.19401 12.14 9.29667 12.1252L10.799 10.6175C10.9282 10.3209 11.1452 10.1846 11.3634 9.98922C11.8182 9.58197 12.2523 9.15678 12.7098 8.75435C12.7813 8.67954 12.6718 8.49751 12.6245 8.4117C12.1925 7.62959 11.6504 6.96298 11.226 6.11281C11.1706 6.00193 11.1062 5.74162 11.0718 5.68724C11.0528 5.65716 10.9793 5.65812 10.9739 5.6263C10.9388 5.42171 11.397 5.20748 11.5249 5.10972C12.7781 4.15079 14.1287 3.39741 15.5549 2.70246C15.9379 2.5158 16.3512 2.26416 16.7614 2.21692C16.866 2.20497 16.8927 2.06999 17.0494 2.2013C17.1324 2.27091 17.4033 2.61299 17.4906 2.72251C17.7832 3.09004 18.0356 3.52969 18.3047 3.91091C18.6232 4.36213 18.9498 4.80872 19.2686 5.25974C19.3674 5.2931 19.5787 5.10779 19.6861 5.07135C19.787 5.03722 19.718 5.20247 19.762 5.18627L19.7811 5.03278C19.8607 5.02488 19.9451 5.01118 20.02 4.98226C20.8493 4.66236 21.669 4.50058 22.513 4.28249C22.7115 4.2312 22.9318 4.08041 23.0455 4.04666C23.2644 3.98149 23.8498 3.95642 23.9369 3.74373C23.9649 3.67489 24.0266 3.39433 24.0405 3.30775C24.1854 2.39818 24.3363 1.51156 24.5088 0.615874C24.5347 0.480702 24.4621 0.306001 24.5889 0.195318C24.7537 0.0514682 24.8433 0.210744 24.9528 0.210937C25.0103 0.210937 25.0903 0.145954 25.1824 0.13477C25.3748 0.111438 25.5126 0.20843 25.5997 0.203802C25.6699 0.200138 25.7477 0.125321 25.836 0.135348C25.8988 0.142483 25.9307 0.211322 25.9907 0.214407C26.0165 0.215757 25.9907 0.135541 26.0663 0.131299C26.1778 0.125128 26.2408 0.196667 26.3287 0.201488C26.3806 0.20438 26.5749 0.181048 26.6426 0.172371C27.7929 0.0229297 28.9448 0.0990966 30.1032 0.137469C30.3801 0.146725 31.1294 0.0805852 31.3268 0.182784C31.5454 0.295781 31.4454 0.574995 31.4702 0.771486C31.5762 1.6099 31.6038 2.3841 31.6784 3.21442C31.6898 3.34111 31.6112 3.51022 31.7115 3.63343V3.63208ZM31.3536 1.02139C31.2113 0.989767 31.2992 1.20959 31.2774 1.29096C31.4241 1.30947 31.3857 1.1072 31.3536 1.02139ZM31.3536 1.40705C31.2972 1.35305 31.284 1.41032 31.2772 1.46393C31.264 1.56806 31.2313 1.88198 31.3924 1.86925L31.3536 1.40685V1.40705ZM31.4308 2.79463C31.4454 2.70651 31.397 2.63401 31.3161 2.602V2.79502L31.4308 2.79463ZM31.3928 3.14153C31.4476 3.15252 31.4804 3.12784 31.5043 3.0777L31.4689 2.91052C31.3712 2.94022 31.3914 3.05707 31.3926 3.14153H31.3928ZM40.8504 2.91052H40.7355V2.98727H40.8504V2.91052ZM15.5136 3.02622H15.4567L15.36 3.14134C15.4309 3.15078 15.473 3.14384 15.5134 3.0833V3.02622H15.5136ZM31.4691 3.45005C31.4893 3.37234 31.5168 3.28519 31.4504 3.21905C31.367 3.25472 31.3661 3.42711 31.4691 3.45005ZM13.9373 3.87447C13.8065 3.87196 13.6674 4.0079 13.5914 4.10528C13.7145 4.12514 13.9107 4.00578 13.9373 3.87447ZM33.7379 4.33648C33.7146 4.24952 33.6191 4.25434 33.5458 4.25993V4.33667H33.7379V4.33648ZM29.1242 6.30274L29.0659 6.22619L28.9706 6.28404L29.1242 6.30274ZM30.2007 6.34227C30.1257 6.31682 29.9491 6.27864 29.9704 6.41863C30.0498 6.40089 30.232 6.47937 30.2007 6.34227ZM46.7331 40.0373C46.7681 39.965 46.8536 39.9695 46.7717 39.7882L46.8292 39.741L46.9253 39.768C46.9236 39.4509 47.2145 39.1766 47.3644 38.9162C48.0318 37.7583 48.4972 36.7612 49.0003 35.5061C49.0763 35.3167 49.286 34.9858 49.3304 34.8347C49.8383 33.1044 50.1095 31.196 50.2683 29.3753C50.3341 28.6219 50.3193 27.8599 50.3112 27.1015C50.3074 26.7353 50.1924 26.3628 50.3475 26.0045L50.1984 25.9415C50.2172 25.7438 50.1699 25.555 50.1551 25.368C50.1365 25.1324 50.1295 25.2023 50.0861 25.0132C50.0613 24.9052 50.0926 24.7868 50.0744 24.678C49.9358 23.8464 49.7368 23.035 49.5699 22.2153C49.5549 22.1416 49.4853 22.0809 49.4746 22.0089C49.4682 21.9665 49.5096 21.9077 49.4975 21.8655C49.4807 21.807 49.3804 21.8055 49.3548 21.737C49.3337 21.6809 49.3542 21.5945 49.3316 21.529C49.0255 20.6439 48.6672 19.8387 48.3267 18.9896C48.2087 18.6954 48.1591 18.6597 48.0038 18.4167C47.7564 18.0294 47.5935 17.5342 47.3571 17.1483C46.6204 15.9457 45.7638 14.8681 44.8496 13.802C44.81 13.7559 44.8028 13.6761 44.7567 13.6252C44.6967 13.5592 44.5914 13.5542 44.5589 13.5128C44.5414 13.4902 44.5762 13.4059 44.5041 13.3014C44.347 13.0731 44.151 13.1778 44.0969 13.0891L44.1187 12.8577L43.9655 12.9347L43.9597 12.7839L43.8578 12.7725C43.8741 12.5955 43.7121 12.6998 43.6192 12.6069C42.1746 11.1597 40.3897 9.89416 38.6332 8.93233C37.7024 8.4225 36.844 7.97494 35.8246 7.66198C35.6737 7.61571 35.2823 7.57328 35.1472 7.5002C35.1056 7.47783 35.1308 7.41594 35.1135 7.39511C35.0374 7.30332 34.8678 7.39665 34.7602 7.38258C34.5581 7.35597 34.2448 7.15523 34.0952 7.1213C33.968 7.09237 33.8138 7.12284 33.6823 7.1159L33.6589 7.00213C33.5314 6.97995 33.3932 7.02199 33.2669 6.98844C33.186 6.96684 33.1256 6.86349 33.0249 6.84517C32.8317 6.81007 32.7104 6.92326 32.6019 6.91941C32.5777 6.91844 32.3097 6.75743 32.2127 6.74046C32.0262 6.70787 31.6817 6.78173 31.4975 6.75878C31.3336 6.73834 31.1431 6.66854 30.9229 6.64019C30.0198 6.52353 29.1027 6.59179 28.2234 6.49422C28.1215 6.48284 28.0292 6.3793 27.9504 6.38142C27.8716 6.38354 27.8447 6.47802 27.7906 6.49114C27.7366 6.50425 27.6668 6.45334 27.6092 6.46105C27.347 6.49634 27.1397 6.53028 26.871 6.53182C26.5569 6.53356 26.6186 6.56576 26.3733 6.61011C26.0297 6.6722 25.6397 6.6803 25.296 6.72504C22.8969 7.03645 20.7029 7.79137 18.56 8.84575C18.3599 8.94429 17.9066 9.18339 17.7328 9.24336C17.669 9.26534 17.6076 9.22254 17.5525 9.25108C17.3708 9.34479 17.0182 9.68899 16.7403 9.82724C16.367 10.0127 16.3837 9.96203 16.0273 10.2303C15.9406 10.2954 15.7816 10.3388 15.7447 10.3708C15.6887 10.4192 15.7185 10.5336 15.6709 10.5667C15.6232 10.5999 15.5138 10.5692 15.4379 10.603C15.331 10.6504 15.1862 10.8566 15.1082 10.9279C14.4571 11.5226 13.6974 12.0284 13.0943 12.6867C13.0472 12.738 13.0461 12.8226 12.9992 12.8612C12.9136 12.9314 12.7198 12.9289 12.6085 13.0862C12.4786 13.2696 12.5047 13.2881 12.3382 13.4491C11.2398 14.5118 9.91317 16.2548 9.3801 17.6753C9.30974 17.8629 9.00216 18.1298 8.92142 18.2964C8.56251 19.038 8.10345 19.931 7.83374 20.7127C7.79395 20.8279 7.83951 21.0458 7.70975 21.1084L7.69034 20.9544C7.5004 21.1331 7.66304 21.1441 7.67034 21.1726C7.73109 21.4119 7.54885 21.4646 7.52405 21.6393C7.51079 21.7322 7.55692 21.8149 7.53924 21.8811C7.5129 21.9804 7.35777 22.1106 7.4014 22.265L7.28683 22.1879L7.28606 22.8045L7.1713 22.7662C7.15226 22.7907 7.18591 23.0876 7.17014 23.1701C7.15303 23.2602 7.06326 23.298 7.03461 23.3811C6.94599 23.6364 6.90678 24.0651 6.86718 24.3315C6.69339 25.5012 6.57651 26.7627 6.56363 27.9515C6.52807 31.2145 7.30067 34.6617 8.8007 37.5364C9.8876 39.6195 11.4007 41.7442 13.0937 43.3711C13.2494 43.5208 13.3823 43.7554 13.6301 43.8162L13.3229 43.4112C13.5545 43.3997 13.6424 43.7396 13.8219 43.8355L13.7456 43.9311C13.9467 44.0426 14.1184 44.2703 14.2964 44.4199C14.3371 44.4541 14.3948 44.4595 14.4352 44.4924C14.5778 44.6087 14.6978 44.8141 14.8988 44.8187C14.9119 44.8065 14.8642 44.6633 14.9561 44.7034C15.097 44.7649 14.9044 44.8655 14.9548 44.935C15.0874 45.0578 15.2824 45.1415 15.4192 45.2416C15.4656 45.2755 15.613 45.4591 15.6682 45.4918C15.7335 45.5306 15.8281 45.4961 15.8544 45.5188C15.8669 45.5296 15.861 45.6029 15.8994 45.6453C16.1613 45.9328 16.8245 46.1839 17.1259 46.3816C17.4975 46.6253 17.6949 46.6941 18.0863 46.8854C18.2538 46.9672 18.2359 47.0896 18.3218 47.15C18.3435 47.1652 18.7801 47.3476 18.8061 47.3532C19.1659 47.4298 18.9443 47.3879 19.1946 47.547C19.3307 47.6336 19.6782 47.747 19.8482 47.8168C20.9091 48.2522 21.8334 48.5329 22.9351 48.8467C23.1364 48.9039 23.4567 49.0511 23.6572 49.0898C23.7508 49.1079 23.8204 49.0516 23.9113 49.0593C24.0022 49.0671 24.0707 49.1471 24.1539 49.1666C26.0665 49.616 28.1924 49.6722 30.1436 49.5223C30.4474 49.499 30.8605 49.387 31.1819 49.4035C31.2515 49.4072 31.3082 49.3966 31.3536 49.4643L31.0854 49.5611C31.0765 49.6297 31.1719 49.5987 31.2146 49.5944C31.2861 49.5875 31.4347 49.5615 31.4912 49.5246C31.576 49.4693 31.5752 49.3359 31.609 49.327C31.639 49.3191 31.9474 49.2875 31.9876 49.2886C32.0952 49.2921 32.1829 49.3704 32.2871 49.36C32.4447 49.3443 32.6906 49.2028 32.8449 49.182C33.6848 49.0686 34.5337 48.8096 35.364 48.5501C35.4171 48.5335 35.4426 48.4683 35.4953 48.4504C35.6729 48.39 35.6679 48.5212 35.6804 48.5217C35.7875 48.5262 35.8615 48.3804 35.9309 48.3478C36.3594 48.1461 36.8715 48.0127 37.2843 47.816C37.8233 47.559 38.4186 47.2028 38.9569 46.9865C39.2139 46.8831 39.1251 46.9116 39.3537 46.768C39.528 46.6585 39.7449 46.5657 39.9231 46.4523C40.0307 46.3839 40.2105 46.1849 40.3147 46.1477C40.4043 46.1156 40.4631 46.1856 40.5415 46.1507C40.5604 46.1423 40.8579 45.9157 40.867 45.8972C40.8925 45.8455 40.8933 45.7994 40.8891 45.7439C40.9681 45.8044 40.9823 45.8166 41.0811 45.7822L41.0427 45.6286L41.2732 45.628L41.1963 45.5131C41.2774 45.5003 41.3624 45.5738 41.4408 45.5476C41.4844 45.5329 41.4904 45.466 41.5167 45.449C41.6242 45.38 41.7863 45.3326 41.8497 45.2047L41.6961 45.1853L41.8879 45.1656C41.9018 45.1496 41.848 45.0844 41.8687 45.0485C41.9041 44.9874 42.1823 44.7857 42.2592 44.7275C42.2884 44.7053 42.4122 44.4909 42.4262 44.7022C42.3787 44.6984 42.1598 44.8981 42.1961 44.9342L42.6004 44.6652L42.6186 44.5875L42.4654 44.5109C42.5454 44.4947 42.6085 44.4363 42.6705 44.3883C42.8622 44.2402 43.0425 44.1185 43.2102 43.9662C43.3145 43.8713 43.3305 43.7275 43.5029 43.816L43.4647 43.6621C43.675 43.7408 43.6552 43.4728 43.7017 43.4363C43.7325 43.4122 43.8197 43.4481 43.8457 43.4257C43.8603 43.413 43.8328 43.3378 43.8714 43.311C43.9074 43.2861 43.9931 43.2979 44.0314 43.2666C44.0696 43.2354 44.0794 43.1218 44.1175 43.0738C44.2357 42.924 44.4384 42.7865 44.5562 42.6555C44.9474 42.2205 45.323 41.7321 45.6794 41.2774C45.7304 41.2124 45.8342 41.2037 45.8104 41.0786L45.9634 41.1172L45.9255 40.9247L46.0789 40.9629L46.041 40.7703L46.1939 40.8472C46.2067 40.8125 46.219 40.7091 46.2329 40.6931H46.1562V40.5776H46.2327L46.2329 40.6931C46.2377 40.6874 46.2979 40.6899 46.3257 40.6528C46.36 40.6071 46.5616 40.3871 46.4065 40.3852L46.3478 40.5391C46.29 40.5445 46.2569 40.5541 46.2704 40.4805C46.2931 40.3561 46.5172 40.2165 46.5414 40.0767L46.6179 40.096C46.6162 40.1756 46.517 40.1949 46.5011 40.2876C46.4889 40.3582 46.5487 40.3719 46.5783 40.3459C46.6154 40.3133 46.7046 40.0961 46.7329 40.0377H46.6562V39.9222H46.7327L46.7329 40.0377L46.7331 40.0373ZM43.9264 6.65041C43.8295 6.64038 43.7965 6.71173 43.8115 6.80429L43.9264 6.65041ZM16.4748 9.61899C16.4021 9.60665 16.3473 9.66392 16.3598 9.7343H16.4748V9.61899ZM45.9632 10.892L45.849 10.9483C45.9042 10.9483 46.032 11.1741 46.0793 11.1221C46.1323 11.0637 45.9019 10.9908 45.9632 10.892ZM51.6157 11.8546L51.4241 11.5849C51.3841 11.6645 51.555 11.9138 51.6157 11.8546ZM47.0405 12.2015C47.0837 12.1581 46.6654 11.7359 46.6177 11.7781C46.6483 11.8278 46.9872 12.2551 47.0405 12.2015ZM44.2575 12.6406C44.1665 12.5376 44.0397 12.4358 43.9268 12.356C43.8749 12.4154 44.3213 12.7879 44.3688 12.857C44.4118 12.8012 44.2923 12.6799 44.2575 12.6406ZM44.789 13.188C44.694 13.0988 44.5347 12.8942 44.4264 12.9148L45.2333 13.7054C45.1642 13.5058 44.9437 13.3336 44.789 13.188ZM45.8102 14.3221C45.8513 14.2787 45.5301 13.9757 45.4837 13.9366C45.4405 13.9001 45.4213 13.8431 45.3492 13.86L45.5016 14.0731L45.8104 14.3222L45.8102 14.3221ZM3.78716 14.2839C3.69027 14.2742 3.6574 14.3454 3.67239 14.4379L3.78696 14.341V14.2839H3.78716ZM4.13318 17.2521C4.14548 17.1792 4.0882 17.1242 4.01822 17.1368V17.2521H4.13318ZM52.1922 20.9534L52.109 20.9758L52.1546 21.146L52.2378 21.1237L52.1922 20.9534ZM7.47811 21.7633H7.40159V21.9173C7.47811 21.8967 7.48791 21.8352 7.47791 21.7633H7.47811ZM56.7486 28.5481L56.6521 28.6449L56.7294 28.7224L56.8259 28.6256L56.7486 28.5481ZM2.71063 30.2452L2.51897 30.2062V30.283H2.71082V30.2452H2.71063ZM52.846 32.9824H52.7695V33.2136C52.867 33.1839 52.8478 33.0668 52.8458 32.9824H52.846ZM52.7307 33.445H52.6542V33.6376C52.7411 33.6143 52.7361 33.5184 52.7305 33.445H52.7307ZM52.6157 33.9843C52.7507 33.9926 52.7739 33.8335 52.673 33.7533L52.6157 33.9843ZM4.32542 35.8738C4.20758 35.8642 4.08954 35.9833 4.01803 36.0661C4.10858 36.0757 4.18028 36.0148 4.24891 35.9689C4.29293 35.9394 4.34868 35.9791 4.32542 35.8738ZM1.94206 37.2228L1.94168 37.3385L2.05702 37.3389L2.05741 37.2232L1.94206 37.2228ZM2.17236 38.3023C2.1814 38.2313 2.17467 38.1893 2.11431 38.1486H2.05741L2.09624 38.3023H2.17236ZM47.7331 38.6879C47.8048 38.6598 47.8519 38.5639 47.8477 38.4951C47.7673 38.5261 47.7191 38.601 47.7331 38.6879ZM2.67199 39.4205C2.69294 39.2944 2.62662 39.2043 2.51897 39.1507C2.49667 39.1781 2.60913 39.4095 2.67199 39.4205ZM2.82597 39.7672C2.83597 39.756 2.76695 39.5362 2.7112 39.5364C2.68891 39.5821 2.74965 39.852 2.82597 39.7672ZM3.40268 40.0757C3.41172 40.0047 3.40499 39.9627 3.34463 39.922H3.28772L3.32656 40.0757H3.40268ZM53.8847 40.1916C53.9704 40.1471 54.0548 40.0672 54.0377 39.9602C53.9766 39.9706 53.8528 40.1523 53.8847 40.1916ZM3.36385 40.7701H3.28772C3.27869 40.8412 3.28542 40.8833 3.34578 40.9238H3.40268L3.36385 40.7701ZM3.63317 41.4253C3.64355 41.3534 3.63356 41.2917 3.55705 41.271C3.54667 41.343 3.55666 41.4047 3.63317 41.4253ZM48.5399 42.4278H48.4636L48.4248 42.5429C48.4949 42.556 48.5522 42.5007 48.5399 42.4278ZM4.97902 43.4689L4.84926 43.4733L4.78717 43.5645L4.88252 43.6228L4.97883 43.526V43.4689H4.97902ZM13.9375 44.3549L13.707 44.1241C13.7124 44.2207 13.8417 44.3505 13.9375 44.3549ZM15.1676 45.4346L15.0799 45.3108L14.1297 44.5869C14.0859 44.627 14.9494 45.332 15.0121 45.3787C15.0647 45.4178 15.0901 45.4508 15.1676 45.4344V45.4346ZM42.6667 44.7888L42.5133 44.9427L42.5719 45.0015L42.7253 44.8476L42.6667 44.7888ZM24.8181 49.4826L24.5491 49.4061L24.6418 49.5196L24.8181 49.4826ZM32.0462 49.4062L31.7388 49.4249C31.8099 49.5104 31.9997 49.5208 32.0462 49.4062ZM30.8926 49.4832C30.8226 49.4706 30.7653 49.5256 30.7776 49.5985H30.8926V49.4832ZM25.2793 49.5605L25.126 49.5216V49.5983H25.2794V49.5607L25.2793 49.5605ZM43.6956 51.6035C43.6569 51.5642 43.5412 51.6787 43.5806 51.7188C43.62 51.7589 43.735 51.6436 43.6956 51.6035ZM14.7833 52.375L14.6299 52.3361C14.6203 52.4333 14.691 52.466 14.7833 52.4514V52.375ZM25.2793 55.6514C25.3014 55.6292 25.2473 55.5366 25.2218 55.5366C25.1153 55.5366 25.2212 55.7096 25.2793 55.6514ZM28.3166 55.806H28.1247V55.8826L28.3164 55.8438V55.8062L28.3166 55.806Z" fill="#1E1E1E"/>
<path d="M36.5443 44.8953L36.4676 45.0484L36.5826 45.126H36.2368C36.1895 45.0752 36.4442 44.8238 36.5443 44.8955V44.8953Z" fill="#1E1E1E"/>
<path d="M37.9285 44.0463C37.8224 44.0766 37.6255 44.1506 37.6211 43.97L37.8643 43.9352L37.9285 44.0465V44.0463Z" fill="#1E1E1E"/>
<path d="M26.4712 44.8946C26.3754 44.8926 26.2783 44.899 26.1824 44.8949C26.1357 44.893 26.0396 44.9241 26.0484 44.8568C26.1834 44.8668 26.3864 44.7339 26.4712 44.8946Z" fill="#1E1E1E"/>
<path d="M25.3563 44.8567L24.9722 44.8945C25.0494 44.774 25.2446 44.8714 25.3563 44.8567Z" fill="#1E1E1E"/>
<path d="M37.9098 43.7387C38.0251 43.7086 38.078 43.8295 37.9859 43.8536C37.8705 43.8837 37.8177 43.7628 37.9098 43.7387Z" fill="#1E1E1E"/>
<path d="M20.3967 45.2424C20.4288 45.2825 20.1879 45.4214 20.2431 45.2037L20.3967 45.2424Z" fill="#1E1E1E"/>
<path d="M37.0677 44.9338L36.8735 44.9849L36.8941 45.0634L37.0882 45.0123L37.0677 44.9338Z" fill="#1E1E1E"/>
<path d="M41.6578 45.2422V45.3186L41.5044 45.3575V45.3005C41.545 45.2399 41.5869 45.2332 41.6578 45.2422Z" fill="#1E1E1E"/>
<path d="M38.2361 43.931H38.1211V43.8157C38.1911 43.8032 38.2484 43.8581 38.2361 43.931Z" fill="#1E1E1E"/>
<path d="M27.4323 44.8566H27.3174V44.9333H27.4323V44.8566Z" fill="#1E1E1E"/>
<path d="M36.2369 45.3579V45.3957L36.0837 45.4345L36.0835 45.3577L36.2369 45.3579Z" fill="#1E1E1E"/>
<path d="M12.207 42.2731C12.149 42.3313 12.0431 42.1583 12.1496 42.1583C12.1749 42.1583 12.2291 42.2509 12.207 42.2731Z" fill="#1E1E1E"/>
<path d="M19.3777 42.2733C19.1764 42.2075 18.741 42.2761 18.9199 41.9308C19.0074 41.7621 19.1418 41.6483 19.2419 41.522C19.6641 40.9892 20.181 40.5343 20.6876 40.0785C20.7912 39.9638 20.7575 39.899 20.6097 39.8814C20.2314 39.8365 19.4778 39.5673 19.1395 39.3895C17.131 38.333 16.4962 35.8014 16.0316 33.7543C15.9197 33.4981 15.3524 33.6228 15.1098 33.5993C14.9491 33.5837 14.7451 33.5069 14.5656 33.4861C14.4923 33.4776 14.4243 33.5227 14.3585 33.5058C14.2351 33.474 13.9552 33.1452 13.9164 33.0224C13.8635 32.8546 13.8376 32.4111 13.8693 32.2389C13.9621 31.7358 14.386 31.596 14.8451 31.5592C16.9164 31.3928 19.2912 31.6147 21.4171 31.5571C22.4075 31.5303 23.5059 31.5322 24.3906 31.069C25.1365 30.6785 25.8881 29.9348 25.8189 29.0289C25.7957 28.7244 25.2847 28.0025 25.0214 27.8528C23.901 27.2169 22.5061 26.6461 21.6124 25.6905C21.424 25.489 21.0593 24.9265 20.8198 24.8627C20.726 24.8378 20.6593 24.8922 20.5713 24.8873C20.0338 24.8584 19.5345 24.8789 18.9913 24.8875C18.2646 24.8991 17.5403 24.9057 16.7617 24.9226C16.6217 24.9257 16.5049 25.0042 16.3607 24.9423C16.3267 24.9278 16.3001 24.863 16.2561 24.8524C16.1827 24.8347 16.0698 24.928 15.9753 24.8467L15.9539 24.9652C15.3165 24.9037 14.6728 24.9516 14.0337 24.9238C13.3576 24.8945 12.7983 24.7821 12.1474 24.6561C12.0446 24.6363 11.9298 24.6743 11.8199 24.6376C11.7284 24.6072 11.7226 24.5231 11.698 24.5098C11.6511 24.4841 11.5605 24.5032 11.4859 24.4712C11.2697 24.3787 10.9246 24.0133 10.8072 23.8023C10.5968 23.4249 10.6716 22.939 10.8216 22.5516C10.936 22.2562 11.7107 21.3141 11.9612 21.0726C12.5267 20.5271 13.9948 19.8835 14.7705 19.8441C14.9947 19.8328 15.0195 20.1 15.2257 19.7182C15.6089 19.0096 15.9995 18.3825 16.748 17.9307C17.4328 17.5173 19.096 17.0863 19.8788 17.1347C20.3944 17.1665 21.0651 17.2323 21.5503 17.4249C22.4115 17.7668 23.292 18.4461 23.7726 19.2446C23.8278 19.3364 23.8147 19.513 23.9335 19.5846C24.6153 19.5811 25.2715 19.6457 25.902 19.9162C26.5062 20.1754 26.7167 20.5316 27.1238 21.0013C27.3793 21.2959 27.6517 21.2813 27.9299 21.5136C28.453 21.9506 28.8028 22.5773 28.5281 23.2664C27.9703 24.6662 26.258 24.6604 24.9912 24.6546L24.8949 24.7695C24.912 24.7909 25.3387 24.9332 25.4035 24.9652C25.7367 25.1297 26.0862 25.3497 26.437 25.5175C27.0575 25.8143 27.7342 26.0626 28.3499 26.4138C28.7206 26.6251 29.1052 26.9134 29.4332 27.0993C29.8144 27.3154 30.0051 27.6207 30.3352 27.8544C30.5018 27.9724 30.6554 28.0405 30.8646 27.9994C31.1189 27.9494 31.4759 27.7678 31.7618 27.7042C31.9071 27.6718 32.0909 27.6859 32.2149 27.6575C33.6136 27.338 34.9985 26.8524 35.9489 25.7344C36.055 25.6095 36.4291 25.1571 36.4858 25.0393C36.5102 24.9884 36.5098 24.9404 36.5058 24.886C36.1646 24.8576 35.8283 24.896 35.4852 24.8875C34.9783 24.8748 34.5342 24.8347 34.0265 24.8561C33.3025 24.8864 32.5153 24.8987 31.7962 24.8087C31.2077 24.735 30.423 24.5771 30.2108 23.9309C29.9753 23.2144 30.4163 22.5568 30.8915 22.0512C31.5507 21.3499 32.5094 20.9309 33.4523 20.8023C33.6101 20.7807 33.876 20.8387 34.005 20.7396C34.0442 20.7095 34.3202 19.9847 34.4127 19.8378C35.6905 17.8083 39.2711 17.5531 41.1333 18.8385C41.7121 19.2383 42.147 19.8937 42.4646 20.5107C42.685 20.5595 42.9157 20.51 43.1374 20.53C44.4436 20.648 46.6211 22.2055 46.1838 23.6991C46.0969 23.9959 45.5671 24.5314 45.2828 24.6459C44.6876 24.886 43.9127 24.8575 43.247 24.8715C42.3792 24.8898 41.508 24.8436 40.6404 24.8457C40.0487 24.8472 39.4862 24.9037 38.8949 24.8528C38.8319 24.9726 38.8651 25.1091 38.8338 25.2348C38.734 25.6365 38.4901 26.2283 38.3197 26.6083C38.179 26.9221 37.9214 27.1095 37.7413 27.3783C37.0404 28.4236 35.8339 29.2395 34.648 29.7888C34.0765 30.0536 33.445 30.1828 32.8942 30.5C32.8637 30.5896 33.1263 31.1145 33.1803 31.2468C33.2303 31.3692 33.2064 31.5532 33.4188 31.5867C33.528 31.6041 33.8189 31.5923 33.9508 31.5956C34.5298 31.6103 35.1359 31.5567 35.7161 31.5538C37.0458 31.547 38.3582 31.5846 39.6762 31.4766C40.1689 31.4363 40.5997 31.5277 41.0626 31.5547C41.4444 31.5771 41.9174 31.5291 42.2904 31.5958C42.3621 31.6085 42.621 31.8239 42.6472 31.8735C42.6562 31.8906 42.7598 32.2115 42.7648 32.2395C42.8048 32.4709 42.6299 32.832 42.5511 33.0501C42.5343 33.0966 42.5564 33.1758 42.5363 33.2073C42.5222 33.2291 42.4371 33.226 42.3992 33.2626C42.291 33.3673 42.3206 33.4589 42.101 33.484C41.6414 33.5366 41.0929 33.4934 40.6418 33.5628C40.4293 33.5956 40.4034 33.8964 40.3605 34.0904C40.0839 35.3419 39.7432 36.4329 39.0825 37.5509C38.5806 38.4003 37.5279 39.4493 36.5513 39.7166C36.3835 39.7624 35.5582 39.8323 35.5069 39.9416L37.5033 41.989C37.4725 42.2999 37.0535 42.1537 36.9289 42.3502C37.4581 42.4246 37.991 42.4169 38.5239 42.4279C38.5873 42.4293 38.6504 42.4647 38.7167 42.4663C38.8213 42.4686 38.9353 42.3997 39.0637 42.4265C39.1652 42.4478 39.1427 42.5224 39.1637 42.5386C39.1706 42.5438 39.273 42.4962 39.3321 42.5006C39.4376 42.5085 39.5293 42.6225 39.659 42.5822L39.5954 42.7709C39.3845 42.7459 39.2163 42.7245 39.0052 42.7752L39.0414 42.9505L39.3722 42.9414L39.4282 43.0444L38.9655 43.1394L38.7876 43.4312C38.675 43.4757 38.5345 43.4512 38.4266 43.4859C38.3318 43.5164 38.2673 43.6437 38.2096 43.6581C38.1331 43.677 38.0927 43.5926 38.027 43.5878C37.9404 43.5814 37.8007 43.6751 37.6982 43.662L37.734 43.8107C37.5721 43.8116 37.5208 44.131 37.4435 44.1578C37.3662 44.1846 37.2386 44.1508 37.1448 44.1666C37.0342 44.1851 36.624 44.249 36.5715 44.2785C36.549 44.2912 36.5506 44.3481 36.5185 44.3548C36.4423 44.3706 36.3578 44.3348 36.2745 44.3741C36.217 44.4013 36.224 44.5041 36.1257 44.5316C35.8931 44.597 35.2387 44.5773 35.103 44.7021C35.0642 44.7378 35.0327 44.7571 35.0457 44.8178L35.3529 44.7413L35.3183 44.873C35.3458 44.9929 35.5898 44.8969 35.6799 44.8919C35.7438 44.8884 35.8107 44.9283 35.8674 44.9225C35.9637 44.9127 36.1705 44.7366 36.1988 44.9717L36.0452 45.0112L36.1192 45.1419L35.9864 45.3566C35.8628 45.4136 35.7784 45.0272 35.5704 45.0918C35.5227 45.1067 35.4965 45.1533 35.5069 45.2033L35.699 45.2424C35.7045 45.372 35.4912 45.4007 35.6413 45.5112L35.8526 45.435L35.7761 45.7046C35.7891 45.7172 36.0129 45.6647 36.0517 45.6537C36.1442 45.6275 36.2609 45.4848 36.2374 45.7046C36.2157 45.7258 35.8981 45.7334 35.836 45.7459C35.4702 45.8207 35.0309 46.0164 34.6797 46.0444C34.6317 46.0482 34.5721 46.0049 34.5323 46.0104C34.5069 46.0141 34.3158 46.232 34.0922 46.2382C34 46.2407 33.9792 46.1797 33.9421 46.1738C33.8946 46.1662 33.8583 46.2368 33.7979 46.2407C33.7551 46.2434 33.7022 46.1996 33.6493 46.2114C33.6011 46.222 33.5474 46.3172 33.4798 46.3516C33.3664 46.4094 33.0338 46.4705 32.9177 46.4306C32.8406 46.4042 32.8271 46.2407 32.7262 46.2499C32.6949 46.2528 32.5909 46.3159 32.5847 46.3411C32.5607 46.442 32.7685 46.4088 32.6622 46.4956C32.4421 46.5438 32.2124 46.534 31.9907 46.5546C31.8483 46.5679 31.6699 46.6273 31.4938 46.6182C31.4215 46.6146 31.3517 46.5477 31.2604 46.5536C31.177 46.5592 31.1143 46.6389 30.9897 46.6333C30.8884 46.6286 30.816 46.5498 30.72 46.5502C30.5193 46.5513 30.1374 46.6574 29.9082 46.6645C29.17 46.6875 28.4099 46.5831 27.6836 46.5515C26.8003 46.5129 25.9097 46.6256 25.0338 46.4717C24.8781 46.4443 24.6667 46.349 24.4875 46.3255C24.1953 46.2873 23.7643 46.3938 23.588 46.0905L25.3764 46.0515L25.4331 45.9746C25.2472 45.974 25.0606 45.9755 24.8743 45.9727C24.52 45.9671 24.1949 45.9628 23.8389 45.9345C23.3996 45.8996 22.9077 45.9451 22.5086 45.8037C22.3471 45.7465 22.1251 45.6963 21.9805 45.6398C21.7287 45.5417 21.2122 45.3731 20.9117 45.3228C20.7795 45.3006 20.557 45.3697 20.4736 45.2422C20.8817 45.1365 21.3169 45.3005 21.7249 45.2438C23.3743 45.0145 25.0198 45.1788 26.6842 45.1277C26.9687 45.119 27.3736 45.0272 27.6454 45.0465C27.9086 45.0652 27.7838 45.1009 28.0693 45.0496C28.3005 45.0079 29.0141 45.0376 29.2975 45.0461C29.5983 45.0552 29.973 45.1292 30.2581 45.1257C30.5432 45.1223 30.8773 44.9345 31.2 45.0101C31.0597 44.6391 30.8033 44.8679 30.6012 44.8533C30.5347 44.8485 30.5018 44.7893 30.3013 44.775C30.226 44.7696 30.1525 44.7171 30.0726 44.7447C30.0068 44.7673 30.0184 44.8747 29.9128 44.8951C29.6937 44.9375 29.224 44.8905 28.9935 44.8521C28.196 44.7195 27.3563 44.7617 26.5306 44.742C25.1463 44.7092 23.7539 44.6119 22.3767 44.5783C21.9104 44.5669 21.4746 44.4065 21.0119 44.4314C21.142 44.2625 21.4352 44.3901 21.6063 44.3947C23.1284 44.4364 24.6648 44.3488 26.1813 44.3947L26.7788 44.2781L23.8376 44.1622C23.6743 44.136 23.8429 44.017 23.7216 43.931C23.5529 43.9343 23.6795 44.1489 23.6644 44.1618C23.4446 44.2578 23.3001 43.937 23.2232 43.9273C22.9114 43.8882 22.9112 44.139 22.8398 44.1508L22.1495 44.0405L22.0919 43.9098C21.984 43.8477 21.8412 43.9682 21.7216 43.9715C21.3565 43.9817 20.7806 43.963 20.419 43.9304C20.311 43.9208 20.1084 43.8039 19.9499 43.7806C19.4882 43.7125 19.1316 43.6986 18.6746 43.5939C18.3211 43.5129 17.9676 43.4385 17.6275 43.3134C17.7513 42.9773 17.5772 43.0538 17.3851 43.0045C17.3532 42.9964 17.3599 42.9289 17.3348 42.9262C17.283 42.9206 17.2183 42.969 17.1516 42.9632C16.922 42.9435 16.6181 42.8855 16.9457 42.6874L17.5214 42.6516C17.9047 42.4501 18.3746 42.5744 18.8 42.5422C19.0699 42.5218 19.388 42.3884 19.6097 42.3517C19.7341 42.3313 19.8832 42.362 20.0115 42.3494C20.0143 42.3245 19.9603 42.2727 19.9538 42.2727H19.3771L19.3777 42.2733ZM20.0118 24.6162C19.9073 24.612 19.7619 24.5133 19.7045 24.654L20.0118 24.6162ZM42.9459 24.693C42.7473 24.67 42.5143 24.7096 42.3115 24.693C42.2954 24.7917 42.3263 24.7634 42.3957 24.7821C42.5826 24.8322 42.869 24.7288 43.0803 24.7697C43.0947 24.7288 42.9615 24.6947 42.9459 24.693ZM24.9718 26.89C24.9408 26.8094 24.866 26.761 24.7795 26.7751C24.8076 26.8469 24.9031 26.8941 24.9718 26.89ZM31.2 29.4734C31.286 29.3849 31.0278 29.1648 30.9313 29.1652C30.883 29.2159 31.1255 29.5501 31.2 29.4734ZM29.8928 29.9745C29.843 29.8203 29.7658 29.5916 29.6243 29.5121C29.6679 29.613 29.6994 29.7397 29.7465 29.8334C29.774 29.8881 29.8123 29.9988 29.8928 29.9745ZM31.8535 30.8615C31.9115 30.6627 31.8016 30.5719 31.7575 30.4375C31.7072 30.284 31.6608 30.0931 31.592 29.9481C31.5484 29.8563 31.3213 29.4358 31.2004 29.5509C31.1616 29.7138 31.3088 29.6762 31.3711 29.7456C31.3892 29.7659 31.6207 30.1859 31.633 30.2157C31.666 30.2963 31.6491 30.3754 31.6733 30.4452C31.7179 30.574 31.766 30.7661 31.8536 30.8615H31.8535ZM29.0472 35.8735H28.4897L28.24 35.7968C28.3799 35.8253 28.5164 35.7657 28.6439 35.7582C29.4176 35.7129 30.2588 35.7831 31.0266 35.7187C31.0997 35.7125 31.4609 35.6743 31.2912 35.5704C30.4449 35.5229 29.5603 35.6151 28.7188 35.5667C28.4849 35.5532 28.0714 35.4377 27.8765 35.4508C27.7605 35.4587 27.58 35.5725 27.4122 35.5692C27.2799 35.5665 27.2177 35.4693 27.0867 35.4882L27.1254 35.6805C26.8093 35.7742 26.9149 35.6697 26.7982 35.4502C26.6067 35.8394 26.6375 35.5312 26.5104 35.4684C26.3691 35.3984 26.1763 35.4855 26.0312 35.4896C25.8195 35.4954 25.6863 35.5106 25.487 35.5226C24.1002 35.6053 22.7445 35.456 21.3787 35.4898C21.1287 35.4959 20.8771 35.4819 20.6276 35.4884C20.564 35.5438 20.9134 35.7088 20.9521 35.7216C21.0809 35.7638 21.7574 35.9001 21.8748 35.9082C22.523 35.9533 22.9562 35.834 23.5692 35.7971C23.757 35.7858 23.9437 35.7941 24.1261 35.8357C24.0136 36.172 23.8675 35.886 23.6263 35.99C23.8449 36.2742 24.0711 35.9809 24.2232 35.9514C24.4927 35.8991 24.945 35.9898 25.2215 35.9923C25.8708 35.9981 26.5366 35.9057 27.1535 35.9425C27.6573 35.9724 28.1539 35.9398 28.65 35.9757C28.6902 35.9786 29.1954 35.9929 29.0474 35.8739L29.0472 35.8735ZM31.9305 35.5654L31.5303 35.6001L31.5078 35.7189C31.5463 35.7582 31.9025 35.661 31.9305 35.5652V35.5654ZM32.2768 35.796C32.2385 35.6978 31.8758 35.639 31.8542 35.7391C31.8127 35.9313 32.1876 35.8365 32.2768 35.796ZM33.2379 35.7582C33.0321 35.7713 32.8279 35.7485 32.623 35.7376C32.3775 35.7244 32.498 35.8617 32.5947 35.8641C32.668 35.8658 32.7814 35.8089 32.8725 35.8041C32.9759 35.7987 33.1664 35.9146 33.2378 35.7582H33.2379ZM31.4307 35.8739C31.2304 35.8683 31.0745 35.8359 30.8736 35.875C30.8119 35.887 30.8071 35.8486 30.816 35.9504H31.0653L31.4307 35.8739ZM38.2359 37.6857H38.1596L38.1208 37.8008C38.1909 37.8139 38.2482 37.7586 38.2359 37.6857ZM32.267 40.741C32.236 40.7102 32.1639 40.7098 32.1253 40.6718C31.9751 40.5235 31.8423 40.247 31.5991 40.2314C31.5032 40.2252 31.4061 40.27 31.2981 40.2704C29.3688 40.2796 27.4226 40.3035 25.4891 40.27C25.1215 40.2636 24.9231 40.1182 24.5863 40.4024C24.1105 40.8037 23.6991 41.3109 23.228 41.7198C23.0213 41.8992 22.7312 42.0212 22.5888 42.2542L33.7758 42.3116C33.8687 42.2073 33.5023 42.0434 33.4431 41.9902C33.0192 41.609 32.6551 41.1279 32.2668 40.7409L32.267 40.741ZM18.7048 43.3911V43.4684L18.859 43.4688V43.3915L18.7048 43.3911ZM37.5441 43.6996L37.3141 43.7576C37.3399 43.7999 37.5114 43.9285 37.5439 43.8924V43.6996H37.5441ZM37.1594 43.7385C37.1338 43.7146 37.0069 43.7565 37.0066 43.7962C37.0054 43.9111 37.2326 43.807 37.1594 43.7385ZM22.6649 43.8924V43.9697L22.8191 43.9701V43.8928L22.6649 43.8924ZM24.6255 43.8928H24.5106V43.9696H24.6255V43.8928ZM36.8903 43.8928C36.8076 43.8922 36.6096 43.8942 36.6602 44.0272C36.7078 44.1525 36.9393 44.0235 36.8903 43.8928ZM28.2015 44.3165C28.2271 44.3404 28.354 44.2985 28.3544 44.2588C28.3555 44.1439 28.1283 44.248 28.2015 44.3165ZM28.6241 44.2011L28.4709 44.2401V44.2777H28.6241V44.2009V44.2011ZM34.8527 44.7792C34.6478 44.8402 34.652 44.9335 34.411 44.8174C34.3202 44.9553 34.5567 45.0247 34.6705 45.0045C34.8199 44.9778 34.8256 44.8909 34.8527 44.7792C34.8821 44.7706 34.9325 44.7856 34.9681 44.7792L34.9104 44.6259C34.8372 44.6668 34.8654 44.7272 34.8527 44.7794V44.7792ZM32.5711 44.9011C32.4838 44.9279 32.4901 45.006 32.5686 45.0477L32.8143 44.9528C32.7602 44.8782 32.6476 44.8776 32.5711 44.9009V44.9011ZM33.43 44.8947V44.9721L33.6226 44.9723V44.8949L33.43 44.8947ZM31.4694 45.0488C31.4463 44.9611 31.3488 44.9686 31.2771 44.9725C31.3002 45.0602 31.3977 45.0527 31.4694 45.0488ZM35.1986 45.2422L35.0452 45.2611C35.0867 45.3205 35.1276 45.3282 35.1986 45.319V45.2422ZM35.2757 45.3188V45.3961L35.4298 45.3965V45.3192L35.2757 45.3188ZM33.9302 45.5502C33.9558 45.5741 34.0826 45.5322 34.083 45.4925C34.0842 45.3776 33.857 45.4817 33.9302 45.5502ZM35.6599 45.5505L35.238 45.6468L35.4018 45.7386L35.6599 45.5505ZM34.891 45.7048H34.776V45.7816H34.891V45.7048ZM32.3152 46.3982C32.296 46.2767 31.9701 46.3064 31.97 46.3793C32.0593 46.502 32.1985 46.3822 32.3152 46.3982Z" fill="#1E1E1E"/>
<path d="M24.2432 35.799L24.2432 35.8763L24.7434 35.8765L24.7434 35.7991L24.2432 35.799Z" fill="#1E1E1E"/>
<path d="M27.8552 35.758V35.8344L27.6633 35.8733C27.6527 35.7557 27.7602 35.7472 27.8552 35.758Z" fill="#1E1E1E"/>
<path d="M26.1633 35.758H26.0483V35.8347H26.1633V35.758Z" fill="#1E1E1E"/>
<path d="M25.5101 35.7968H25.2798V35.8345H25.5101V35.7968Z" fill="#1E1E1E"/>
<path d="M34.7885 11.88C34.8517 11.9249 34.9592 11.9421 34.9968 11.9805C35.0215 12.0053 35.1326 12.1527 35.176 12.2057C35.3946 12.4728 35.502 12.7925 35.7241 13.047C35.8575 13.0283 35.9676 12.9554 36.1068 12.9386C37.1686 12.8108 38.8781 13.1552 39.5821 14.0314C40.1134 14.6928 40.2778 15.7929 39.6023 16.4051C38.7474 17.1797 37.5496 17.1168 36.4873 17.1369C36.186 17.1426 35.8646 17.1891 35.5641 17.1752C35.4926 17.172 35.2902 17.0835 35.2764 17.0981C35.2435 17.1326 35.3406 17.2717 35.0255 17.2562C34.8573 17.2481 34.8417 17.1446 34.7567 17.1361C34.6947 17.1299 34.6081 17.1774 34.528 17.177C33.5733 17.172 32.5481 17.3347 31.5645 17.2539C31.2611 17.229 30.9683 17.0765 30.6471 17.2481C30.5887 17.2896 30.7077 17.9867 30.7494 18.1099C30.928 18.638 31.5948 19.4043 32.1517 19.5179C32.2861 19.5453 32.4459 19.4807 32.5462 19.585L31.6339 19.9417C31.5295 19.9533 31.4074 19.9662 31.3049 19.9427C31.1446 19.9059 31.1317 19.719 30.9151 19.7585C30.8482 19.7707 30.7995 19.8507 30.728 19.8316C30.698 19.8235 30.3147 19.6012 30.2601 19.5642C30.0269 19.4061 29.7401 19.0387 29.609 18.7906C29.3372 18.2759 29.4162 17.7229 29.5473 17.1754C29.3593 17.2651 29.2805 17.2423 29.0863 17.1943C28.7651 17.1151 28.9372 17.1633 28.6448 17.1783C27.9394 17.2148 27.1063 17.106 26.3756 17.1058C25.5023 17.1058 24.6086 17.2454 23.7214 17.1766C22.9924 17.1199 22.7192 16.5158 22.1994 16.1581C21.9734 16.0025 21.4543 15.7514 21.1931 15.6249C21.0279 15.5451 20.3805 15.5221 20.1487 15.5156C19.1067 15.4866 18.4712 15.5428 17.5027 15.9113C16.9389 16.1257 16.5056 16.4396 15.9262 16.5277C15.8735 16.5358 15.8156 16.6 15.7662 16.5995C15.7378 16.5991 15.7389 16.5237 15.7059 16.5027C15.6555 16.4706 15.5846 16.4892 15.5329 16.4431C15.4039 16.3281 15.2282 15.7038 15.2558 15.5418C15.2637 15.4959 15.3295 15.4541 15.3433 15.4033C15.3643 15.3254 15.3527 15.241 15.3787 15.1693C15.7326 14.1926 17.2911 13.4568 18.2682 13.3224C18.3726 13.3081 18.4798 13.3615 18.5496 13.3385C18.6961 13.2905 18.8684 12.9278 18.9745 12.799C19.5939 12.0476 20.5425 11.6619 21.5118 11.7603C21.6658 11.5395 21.8105 11.315 21.9682 11.0967C22.8196 9.91798 23.7325 9.23074 25.1268 8.79033C27.0042 8.19738 29.2803 8.67135 30.7138 10.0487C31.1223 10.4411 31.4405 11.0192 31.8267 11.4417C31.956 11.5046 32.2838 11.2296 32.4526 11.2014C33.1619 11.0827 34.2273 11.4808 34.7887 11.8798L34.7885 11.88ZM19.0123 15.2092L18.7434 15.2857C18.8247 15.2643 19.0443 15.3522 19.0123 15.2092ZM16.9362 15.9415H16.8212V16.0183H16.9362V15.9415ZM15.7063 16.4423C15.8472 16.4417 15.8472 16.3276 15.7063 16.327V16.4423ZM33.8915 16.6351V16.578L33.829 16.5244L33.6996 16.5588V16.6351H33.8915ZM39.005 16.5584H38.8516V16.6737L39.005 16.6347V16.5584ZM24.395 17.0208C24.4982 17.0135 24.627 17.0595 24.702 16.9631C24.627 16.8667 24.4982 16.9126 24.395 16.9055V17.0208Z" fill="#1E1E1E"/>
</g>
<path d="M69 9.26227H71.5237V23.1216C73.3873 19.7704 76.8719 17.6498 81.0844 17.6498C87.5586 17.6498 92.3827 22.5252 92.3827 28.9626C92.3827 35.4 87.5586 40.2754 81.0844 40.2754C76.8719 40.2754 73.397 38.1549 71.5237 34.8036V39.7642H69V9.26227ZM89.7717 28.9721C89.7717 23.8884 85.86 20.026 80.6477 20.026C75.4353 20.026 71.5237 23.8884 71.5237 28.9721C71.5237 34.0557 75.4353 37.9182 80.6477 37.9182C85.86 37.9182 89.7717 34.0652 89.7717 28.9721Z" fill="#1E1E1E"/>
<path d="M94.2754 28.9721C94.2754 22.5252 99.313 17.6593 106.01 17.6593C112.708 17.6593 117.697 22.5347 117.697 28.9721C117.697 35.4095 112.659 40.2849 106.01 40.2849C99.3615 40.2849 94.2754 35.4095 94.2754 28.9721ZM115.096 28.9721C115.096 23.8884 111.232 20.026 106.01 20.026C100.788 20.026 96.8864 23.879 96.8864 28.9721C96.8864 34.0652 100.798 37.9182 106.01 37.9182C111.223 37.9182 115.096 34.0652 115.096 28.9721Z" fill="#1E1E1E"/>
<path d="M121.929 34.3965V20.4141H117.581V18.1705H120.492C121.492 18.1705 122.016 17.6214 122.016 16.6842V12.0266H124.453V18.1705H131.752V20.4141H124.453V34.1504C124.453 36.1857 125.841 37.5016 127.976 37.5016C130.112 37.5016 131.538 36.1479 131.538 34.0652H133.839C133.839 37.5016 131.451 39.7831 127.84 39.7831C124.229 39.7831 121.929 37.6247 121.929 34.3965Z" fill="#1E1E1E"/>
<path d="M135.081 28.9721C135.081 22.5252 139.692 17.6593 145.768 17.6593C148.466 17.6593 150.767 18.6344 152.455 20.3289V9.26227H158.803V32.0677C158.803 33.1659 159.454 33.8096 160.589 33.8096H161.026V39.7831H159.24C156.202 39.7831 154.203 38.8081 153.203 36.8579C151.427 38.9785 148.854 40.2943 145.768 40.2943C139.682 40.2943 135.081 35.419 135.081 28.9816V28.9721ZM152.465 28.9721C152.465 25.9238 150.165 23.6328 147.03 23.6328C143.894 23.6328 141.643 25.9238 141.643 28.9721C141.643 32.0204 143.943 34.3113 147.03 34.3113C150.116 34.3113 152.465 32.0204 152.465 28.9721Z" fill="#1E1E1E"/>
<path d="M161.628 28.9721C161.628 22.5252 166.753 17.6593 173.576 17.6593C180.4 17.6593 185.525 22.5347 185.525 28.9721C185.525 35.4095 180.4 40.2849 173.576 40.2849C166.753 40.2849 161.628 35.4095 161.628 28.9721ZM179.012 28.9721C179.012 25.9238 176.712 23.6328 173.576 23.6328C170.441 23.6328 168.141 25.9238 168.141 28.9721C168.141 32.0204 170.441 34.3114 173.576 34.3114C176.712 34.3114 179.012 32.0204 179.012 28.9721Z" fill="#1E1E1E"/>
<path d="M183.662 42.235H184.749C186.874 42.235 187.962 41.1747 187.962 39.2719V18.161H194.31V39.9441C194.31 45.5011 191.398 48.2559 185.011 48.2559H183.662V42.235ZM187.175 11.6763C187.175 9.51786 188.874 7.90851 191.126 7.90851C193.378 7.90851 195.038 9.51786 195.038 11.6763C195.038 13.8347 193.339 15.4914 191.126 15.4914C188.913 15.4914 187.175 13.882 187.175 11.6763Z" fill="#1E1E1E"/>
<path d="M196.522 28.9721C196.522 22.5252 201.647 17.6593 208.471 17.6593C215.295 17.6593 220.42 22.5347 220.42 28.9721C220.42 35.4095 215.295 40.2849 208.471 40.2849C201.647 40.2849 196.522 35.4095 196.522 28.9721ZM213.897 28.9721C213.897 25.9238 211.596 23.6328 208.461 23.6328C205.326 23.6328 203.026 25.9238 203.026 28.9721C203.026 32.0204 205.326 34.3114 208.461 34.3114C211.596 34.3114 213.897 32.0204 213.897 28.9721Z" fill="#1E1E1E"/>
<defs>
<clipPath id="clip0_2062_379">
<rect width="57" height="56" fill="white" transform="translate(0 0.0822144)"/>
</clipPath>
</defs>
</svg>
