<?xml version="1.0" encoding="UTF-8" standalone="no"?>
<!DOCTYPE svg PUBLIC "-//W3C//DTD SVG 1.1//EN" "http://www.w3.org/Graphics/SVG/1.1/DTD/svg11.dtd">
<svg width="100%" height="100%" viewBox="0 0 336 78" version="1.1" xmlns="http://www.w3.org/2000/svg" xmlns:xlink="http://www.w3.org/1999/xlink" xml:space="preserve" xmlns:serif="http://www.serif.com/" style="fill-rule:evenodd;clip-rule:evenodd;stroke-linejoin:round;stroke-miterlimit:2;">
    <g id="g38" transform="matrix(1,0,0,1,0.02,-3.55271e-15)">
        <path id="path24" d="M77.9,43.14C78.06,41.72 78.14,40.28 78.14,38.82C78.14,37.36 78.06,35.92 77.9,34.5L72.65,33.92C72.39,32.12 71.99,30.36 71.45,28.66L75.93,25.86C74.96,23.11 73.7,20.5 72.18,18.08L67.2,19.84C66.19,18.35 65.06,16.94 63.83,15.63L66.65,11.17C64.61,9.13 62.34,7.32 59.89,5.78L56.17,9.52C54.62,8.62 53,7.83 51.31,7.17L51.92,1.92C49.23,0.98 46.41,0.33 43.49,0L41.76,4.99C40.87,4.92 39.97,4.88 39.06,4.88C38.15,4.88 37.25,4.92 36.36,4.99L34.63,0C31.71,0.33 28.89,0.98 26.2,1.92L26.81,7.17C25.12,7.82 23.5,8.61 21.95,9.52L18.23,5.78C15.78,7.33 13.52,9.14 11.47,11.17L14.29,15.63C13.06,16.94 11.93,18.35 10.92,19.84L5.94,18.08C4.42,20.51 3.15,23.12 2.19,25.86L6.67,28.66C6.14,30.36 5.74,32.12 5.47,33.92L0.22,34.5C0.06,35.92 -0.02,37.36 -0.02,38.82C-0.02,40.28 0.06,41.72 0.22,43.14L5.47,43.72C5.73,45.52 6.13,47.28 6.67,48.98L2.19,51.78C3.16,54.53 4.42,57.14 5.94,59.56L10.92,57.8C11.93,59.29 13.06,60.7 14.29,62.01L11.47,66.47C13.51,68.51 15.78,70.32 18.23,71.86L21.95,68.12C23.5,69.02 25.12,69.81 26.81,70.47L26.2,75.72C28.89,76.66 31.71,77.31 34.63,77.64L36.36,72.65C37.25,72.72 38.15,72.76 39.06,72.76C39.97,72.76 40.87,72.72 41.76,72.65L43.49,77.64C46.41,77.31 49.23,76.66 51.92,75.72L51.31,70.47C53,69.82 54.62,69.03 56.17,68.12L59.89,71.86C62.34,70.31 64.6,68.5 66.65,66.47L63.83,62.01C65.06,60.7 66.19,59.29 67.2,57.8L72.18,59.56C73.7,57.13 74.97,54.52 75.93,51.78L71.45,48.98C71.98,47.28 72.38,45.52 72.65,43.72L77.9,43.14ZM39.07,68.93C22.44,68.93 8.96,55.45 8.96,38.82C8.96,22.19 22.44,8.71 39.07,8.71C55.7,8.71 69.18,22.19 69.18,38.82C69.18,55.45 55.7,68.93 39.07,68.93Z" style="fill:rgb(166,164,255);fill-rule:nonzero;"/>
        <path id="path26" d="M52.67,36.04L50.64,36.04C49.4,37.72 47.08,39.47 42.77,39.58C43.85,40.58 44.73,41.64 45.22,42.8C49.89,41.98 51.85,38.69 52.67,36.04Z" style="fill:rgb(114,103,239);fill-rule:nonzero;"/>
        <path id="path28" d="M40.45,25.2C40.75,26.77 41.35,28.55 42.51,29.61C42.86,29.46 43.24,29.36 43.64,29.33C44.08,28.68 44.7,28.18 45.4,27.85C43.68,27.58 42.71,26.39 42.17,25.19L40.44,25.19L40.45,25.2Z" style="fill:rgb(114,103,239);fill-rule:nonzero;"/>
        <path id="path30" d="M57.25,45.4L44.68,45.4C44.71,45.19 44.72,44.99 44.71,44.79C44.71,44.38 44.63,43.97 44.5,43.58C44.44,43.38 44.36,43.19 44.27,42.99C44.26,42.97 44.24,42.95 44.23,42.92C44.06,42.56 43.84,42.2 43.58,41.85C43.28,41.44 42.93,41.05 42.54,40.66C42.4,40.52 42.26,40.38 42.11,40.24C41.92,40.07 41.73,39.9 41.53,39.72C40.93,39.21 40.27,38.71 39.59,38.23C39.14,37.91 38.67,37.59 38.2,37.28C37.73,36.97 37.26,36.66 36.8,36.35C36.64,36.24 36.47,36.13 36.31,36.03L31.7,36.03C31.97,36.35 32.25,36.66 32.52,36.97C32.95,37.45 33.37,37.91 33.78,38.36C33.98,38.58 34.18,38.8 34.37,39.01C34.63,39.29 34.83,39.57 35,39.83C35.17,40.1 35.29,40.36 35.38,40.61C35.55,41.1 35.57,41.55 35.5,41.98C35.5,42.02 35.49,42.05 35.48,42.08C35.41,42.38 35.3,42.67 35.14,42.94C35.02,43.14 34.88,43.33 34.72,43.52C34.4,43.89 34.02,44.22 33.61,44.51C33.48,44.6 33.35,44.69 33.21,44.78C32.84,45.02 32.47,45.22 32.12,45.39L21.22,45.39C20.4,45.39 19.73,46.06 19.73,46.88C19.73,47.7 20.4,48.37 21.22,48.37L22.96,48.37L25.25,54.18C26.36,57.01 28.72,58.87 31.3,59.02C31.24,59.37 31.03,59.81 30.42,60.06C29.3,60.52 28.1,60.2 28.1,61.93L33.84,61.93L36.05,59.03L43.35,59.03L45.56,61.93L51.3,61.93C51.3,60.2 50.1,60.52 48.98,60.06C48.29,59.77 48.11,59.24 48.08,58.88C50.28,58.38 52.2,56.65 53.17,54.17L55.46,48.36L57.26,48.36C58.08,48.36 58.75,47.69 58.75,46.87C58.75,46.05 58.08,45.38 57.26,45.38L57.25,45.4ZM31.27,52.22C31.27,51.63 31.75,51.16 32.33,51.16L46.78,51.16C47.37,51.16 47.84,51.64 47.84,52.22C47.84,52.8 47.36,53.28 46.78,53.28L32.33,53.28C31.74,53.28 31.27,52.8 31.27,52.22Z" style="fill:rgb(114,103,239);fill-rule:nonzero;"/>
        <path id="path32" d="M22.11,23.93C23.4,22.68 25.15,21.93 27.02,21.93C29.04,21.93 30.94,22.81 32.25,24.27L51.21,24.27C51.35,24.27 51.48,24.24 51.62,24.24C51.76,24.24 51.9,24.26 52.04,24.27L52.18,24.27C52.36,24.27 52.54,24.25 52.71,24.22C53.9,23.98 54.8,22.92 54.8,21.66C54.8,20.4 53.9,19.34 52.71,19.1C52.54,19.07 52.36,19.05 52.18,19.05C51.82,19.05 51.48,19.12 51.16,19.25C50.85,19.38 50.57,19.57 50.33,19.81C50.25,19.6 50.15,19.4 50.03,19.21C49.88,18.98 49.72,18.76 49.52,18.57C48.93,18 48.12,17.65 47.23,17.65C46.65,17.65 46.11,17.8 45.64,18.06C45.48,18.15 45.33,18.25 45.19,18.35C44.93,17.88 44.59,17.47 44.18,17.14C43.91,16.92 43.6,16.73 43.28,16.59C43.12,16.52 42.95,16.46 42.78,16.41C42.43,16.31 42.07,16.26 41.69,16.26C41.58,15.98 41.46,15.7 41.31,15.44C41.16,15.18 41,14.93 40.82,14.7C40.73,14.58 40.63,14.47 40.54,14.36C40.24,14.03 39.91,13.73 39.55,13.47C38.58,12.78 37.4,12.38 36.12,12.38C35.32,12.38 34.56,12.54 33.86,12.83C33.72,12.89 33.58,12.95 33.45,13.02C33.26,13.11 33.08,13.22 32.91,13.33C32.71,13.46 32.51,13.6 32.33,13.75C32.22,13.84 32.11,13.94 32,14.05C31.68,14.36 31.39,14.7 31.15,15.08C31.07,15.2 30.99,15.33 30.92,15.46C30.78,15.72 30.65,16 30.55,16.28C30.36,16.29 30.18,16.32 30,16.35C29.82,16.38 29.65,16.43 29.48,16.49C28.47,16.84 27.64,17.58 27.18,18.54C27.05,18.52 26.92,18.5 26.78,18.5C26.35,18.5 25.95,18.6 25.59,18.77C25.42,18.85 25.25,18.94 25.09,19.05C24.97,19.14 24.86,19.23 24.76,19.33C24.55,19.54 24.37,19.77 24.24,20.03C24.17,20.16 24.11,20.3 24.06,20.44C23.93,20.38 23.8,20.33 23.66,20.3C23.52,20.27 23.37,20.25 23.22,20.25C22.66,20.25 22.16,20.48 21.8,20.84C21.44,21.2 21.21,21.71 21.21,22.26C21.21,22.96 21.57,23.58 22.11,23.94L22.11,23.93Z" style="fill:rgb(114,103,239);fill-rule:nonzero;"/>
        <path id="path34" d="M30.91,35.1L36.87,35.1C37.49,35.1 38.06,34.91 38.53,34.59C39.32,34.06 39.84,33.15 39.84,32.13C39.84,31.11 39.32,30.2 38.53,29.67C38.06,29.35 37.48,29.16 36.87,29.16C36.73,29.16 36.6,29.18 36.46,29.2C36.13,28.51 35.61,27.93 34.97,27.51C34.33,27.1 33.57,26.86 32.75,26.86C32.72,26.77 32.68,26.69 32.65,26.61C32.44,26.12 32.18,25.67 31.86,25.25C31.85,25.23 31.83,25.22 31.82,25.2C31.55,24.86 31.24,24.54 30.91,24.26C29.86,23.39 28.5,22.86 27.03,22.86C25.97,22.86 24.97,23.13 24.11,23.61C23.8,23.78 23.5,23.98 23.22,24.2C23.2,24.22 23.18,24.23 23.16,24.25C22.92,24.45 22.7,24.66 22.49,24.89C22.44,24.94 22.4,25 22.36,25.05C21.91,25.59 21.55,26.2 21.3,26.87C21.11,26.88 20.92,26.91 20.74,26.94C20.37,27.01 20.03,27.14 19.7,27.3C18.89,27.71 18.24,28.37 17.84,29.19C17.7,29.17 17.57,29.15 17.43,29.15C16.81,29.15 16.24,29.34 15.77,29.66C15.45,29.87 15.18,30.15 14.97,30.46C14.76,30.78 14.6,31.14 14.52,31.52C14.48,31.71 14.46,31.91 14.46,32.12C14.46,32.74 14.65,33.31 14.97,33.78C15.18,34.1 15.46,34.37 15.77,34.58C16.24,34.9 16.82,35.09 17.43,35.09L30.92,35.09L30.91,35.1Z" style="fill:rgb(114,103,239);fill-rule:nonzero;"/>
        <path id="path36" d="M59.29,30.31C59.16,30.03 58.98,29.77 58.78,29.54C58.58,29.31 58.34,29.11 58.08,28.94C57.86,28.8 57.61,28.68 57.35,28.6C57.28,28.58 57.21,28.55 57.15,28.54C56.87,28.46 56.58,28.42 56.28,28.42C56.16,28.1 56,27.81 55.83,27.53C55.61,27.18 55.36,26.85 55.07,26.57C54.71,26.23 54.31,25.94 53.86,25.71C53.41,25.49 52.93,25.33 52.42,25.25C52.29,25.23 52.15,25.23 52.02,25.22C51.89,25.22 51.77,25.19 51.64,25.19C51.51,25.19 51.39,25.21 51.26,25.22C50.44,25.28 49.68,25.54 49.03,25.95C48.74,26.13 48.45,26.34 48.21,26.58C48.19,26.6 48.18,26.62 48.16,26.64C47.65,27.15 47.25,27.76 47,28.44C46.91,28.44 46.82,28.46 46.73,28.48C46.52,28.51 46.31,28.55 46.12,28.62C45.98,28.67 45.84,28.73 45.71,28.79C45.05,29.12 44.52,29.66 44.2,30.33C44.09,30.31 43.98,30.3 43.87,30.3C43.78,30.3 43.7,30.32 43.62,30.33C43.38,30.36 43.15,30.4 42.93,30.49C42.06,30.86 41.46,31.71 41.46,32.71C41.46,33.71 42.07,34.57 42.93,34.93C43.22,35.05 43.54,35.12 43.87,35.12L59.66,35.12C59.99,35.12 60.31,35.05 60.6,34.93C61.47,34.56 62.07,33.71 62.07,32.71C62.07,31.71 61.46,30.85 60.6,30.49C60.31,30.37 59.99,30.3 59.66,30.3C59.55,30.3 59.44,30.32 59.33,30.33L59.29,30.31Z" style="fill:rgb(114,103,239);fill-rule:nonzero;"/>
    </g>
    <g transform="matrix(1.61101,0,0,1.61101,-19.5661,-0.696929)">
        <path d="M69,9.262L71.524,9.262L71.524,23.122C73.387,19.77 76.872,17.65 81.084,17.65C87.559,17.65 92.383,22.525 92.383,28.963C92.383,35.4 87.559,40.275 81.084,40.275C76.872,40.275 73.397,38.155 71.524,34.804L71.524,39.764L69,39.764L69,9.262ZM89.772,28.972C89.772,23.888 85.86,20.026 80.648,20.026C75.435,20.026 71.524,23.888 71.524,28.972C71.524,34.056 75.435,37.918 80.648,37.918C85.86,37.918 89.772,34.065 89.772,28.972Z" style="fill:#1B1F2B;fill-rule:nonzero;"/>
    </g>
    <g transform="matrix(1.61101,0,0,1.61101,-19.5661,-0.696929)">
        <path d="M94.275,28.972C94.275,22.525 99.313,17.659 106.01,17.659C112.708,17.659 117.697,22.535 117.697,28.972C117.697,35.41 112.659,40.285 106.01,40.285C99.362,40.285 94.275,35.41 94.275,28.972ZM115.096,28.972C115.096,23.888 111.232,20.026 106.01,20.026C100.788,20.026 96.886,23.879 96.886,28.972C96.886,34.065 100.798,37.918 106.01,37.918C111.223,37.918 115.096,34.065 115.096,28.972Z" style="fill:#1B1F2B;fill-rule:nonzero;"/>
    </g>
    <g transform="matrix(1.61101,0,0,1.61101,-19.5661,-0.696929)">
        <path d="M121.929,34.397L121.929,20.414L117.58,20.414L117.58,18.171L120.492,18.171C121.492,18.171 122.016,17.621 122.016,16.684L122.016,12.027L124.452,12.027L124.452,18.171L131.751,18.171L131.751,20.414L124.452,20.414L124.452,34.15C124.452,36.186 125.84,37.502 127.976,37.502C130.111,37.502 131.538,36.148 131.538,34.065L133.838,34.065C133.838,37.502 131.45,39.783 127.84,39.783C124.229,39.783 121.929,37.625 121.929,34.397Z" style="fill:#1B1F2B;fill-rule:nonzero;"/>
    </g>
    <g transform="matrix(1.61101,0,0,1.61101,-19.5661,-0.696929)">
        <path d="M135.081,28.972C135.081,22.525 139.692,17.659 145.768,17.659C148.466,17.659 150.767,18.634 152.455,20.329L152.455,9.262L158.803,9.262L158.803,32.068C158.803,33.166 159.454,33.81 160.589,33.81L161.026,33.81L161.026,39.783L159.24,39.783C156.202,39.783 154.203,38.808 153.203,36.858C151.427,38.978 148.854,40.294 145.768,40.294C139.682,40.294 135.081,35.419 135.081,28.982L135.081,28.972ZM152.465,28.972C152.465,25.924 150.165,23.633 147.03,23.633C143.894,23.633 141.643,25.924 141.643,28.972C141.643,32.02 143.943,34.311 147.03,34.311C150.116,34.311 152.465,32.02 152.465,28.972Z" style="fill:#1B1F2B;fill-rule:nonzero;"/>
    </g>
    <g transform="matrix(1.61101,0,0,1.61101,-19.5661,-0.696929)">
        <path d="M161.628,28.972C161.628,22.525 166.753,17.659 173.576,17.659C180.4,17.659 185.525,22.535 185.525,28.972C185.525,35.41 180.4,40.285 173.576,40.285C166.753,40.285 161.628,35.41 161.628,28.972ZM179.012,28.972C179.012,25.924 176.712,23.633 173.576,23.633C170.441,23.633 168.141,25.924 168.141,28.972C168.141,32.02 170.441,34.311 173.576,34.311C176.712,34.311 179.012,32.02 179.012,28.972Z" style="fill:#1B1F2B;fill-rule:nonzero;"/>
    </g>
    <g transform="matrix(1.61101,0,0,1.61101,-19.5661,-0.696929)">
        <path d="M183.662,42.235L184.749,42.235C186.875,42.235 187.962,41.175 187.962,39.272L187.962,18.161L194.31,18.161L194.31,39.944C194.31,45.501 191.398,48.256 185.011,48.256L183.662,48.256L183.662,42.235ZM187.176,11.676C187.176,9.518 188.874,7.909 191.126,7.909C193.378,7.909 195.038,9.518 195.038,11.676C195.038,13.835 193.339,15.491 191.126,15.491C188.913,15.491 187.176,13.882 187.176,11.676Z" style="fill:#1B1F2B;fill-rule:nonzero;"/>
    </g>
    <g transform="matrix(1.61101,0,0,1.61101,-19.5661,-0.696929)">
        <path d="M196.522,28.972C196.522,22.525 201.647,17.659 208.471,17.659C215.295,17.659 220.42,22.535 220.42,28.972C220.42,35.41 215.295,40.285 208.471,40.285C201.647,40.285 196.522,35.41 196.522,28.972ZM213.897,28.972C213.897,25.924 211.596,23.633 208.461,23.633C205.326,23.633 203.026,25.924 203.026,28.972C203.026,32.02 205.326,34.311 208.461,34.311C211.596,34.311 213.897,32.02 213.897,28.972Z" style="fill:#1B1F2B;fill-rule:nonzero;"/>
    </g>
</svg>
